<!-- Generator: Adobe Illustrator 21.0.2, SVG Export Plug-In  -->
<svg version="1.1"
	 xmlns="http://www.w3.org/2000/svg" xmlns:xlink="http://www.w3.org/1999/xlink" xmlns:a="http://ns.adobe.com/AdobeSVGViewerExtensions/3.0/"
	 x="0px" y="0px" width="535.863px" height="194px" viewBox="0 0 535.863 194" style="enable-background:new 0 0 535.863 194;"
	 xml:space="preserve">
<style type="text/css">
	.st0{fill:url(#SVGID_1_);}
	.st1{fill:url(#SVGID_2_);}
	.st2{fill:url(#SVGID_3_);}
	.st3{fill:#3D3831;}
	.st4{fill:#090708;}
	.st5{fill:#E8A645;}
	.st6{fill:#39301E;}
	.st7{opacity:0.302;}
	.st8{fill:none;}
	.st9{fill:#5D3718;}
	.st10{fill:url(#SVGID_4_);}
	.st11{fill:url(#SVGID_5_);}
	.st12{fill:url(#SVGID_6_);}
	.st13{font-family:'Lora-Bold';}
	.st14{font-size:16px;}
</style>
<defs>
</defs>
<linearGradient id="SVGID_1_" gradientUnits="userSpaceOnUse" x1="2.0548" y1="65.6697" x2="133.3941" y2="65.6697">
	<stop  offset="0" style="stop-color:#2F8662"/>
	<stop  offset="1" style="stop-color:#287E45"/>
</linearGradient>
<circle class="st0" cx="67.724" cy="65.67" r="65.67"/>
<linearGradient id="SVGID_2_" gradientUnits="userSpaceOnUse" x1="203.2894" y1="66.8553" x2="337" y2="66.8553">
	<stop  offset="0" style="stop-color:#2F8662"/>
	<stop  offset="1" style="stop-color:#287E45"/>
</linearGradient>
<circle class="st1" cx="270.145" cy="66.855" r="66.855"/>
<linearGradient id="SVGID_3_" gradientUnits="userSpaceOnUse" x1="404.5239" y1="65.6697" x2="535.8633" y2="65.6697">
	<stop  offset="0" style="stop-color:#2F8662"/>
	<stop  offset="1" style="stop-color:#287E45"/>
</linearGradient>
<circle class="st2" cx="470.194" cy="65.67" r="65.67"/>
<g>
	<path class="st3" d="M80.94,41.045H57.5v0.081c-2.126-1.909-4.925-3.081-8-3.081c-6.617,0-12,5.383-12,12
		c0,4.314,2.284,8.238,6,10.383v1.617h-2v2h2v4h5v26h44V53.656L80.94,41.045z M81.5,44.616l7.727,8.429H81.5V44.616z M44.956,58.943
		c-3.366-1.721-5.456-5.131-5.456-8.898c0-5.514,4.486-10,10-10s10,4.486,10,10c0,3.767-2.09,7.177-5.456,8.898l-0.544,0.28v2.822
		h-3v-8.142c1.72-0.447,3-1.999,3-3.858c0-2.206-1.794-4-4-4s-4,1.794-4,4c0,1.859,1.28,3.411,3,3.858v8.142h-3v-2.822
		L44.956,58.943z M49.5,52.045c-1.103,0-2-0.897-2-2s0.897-2,2-2s2,0.897,2,2S50.603,52.045,49.5,52.045z M45.5,66.045v-2h8v2h-3h-2
		H45.5z M50.5,92.045v-24h5v-4h2v-2h-2v-1.617c3.716-2.145,6-6.068,6-10.383c0-2.614-0.849-5.027-2.273-7H79.5v12h11v37H50.5z"/>
	<path class="st3" d="M82.5,90.045h6v-33h-6V90.045z M84.5,59.045h2v29h-2V59.045z"/>
	<polygon class="st3" points="74.5,90.045 80.5,90.045 80.5,73.045 78.5,73.045 78.5,88.045 76.5,88.045 76.5,69.045 78.5,69.045 
		78.5,71.045 80.5,71.045 80.5,67.045 74.5,67.045 	"/>
	<path class="st3" d="M66.5,90.045h6v-26h-6V90.045z M68.5,66.045h2v22h-2V66.045z"/>
	<polygon class="st3" points="58.5,84.045 60.5,84.045 60.5,75.045 62.5,75.045 62.5,88.045 60.5,88.045 60.5,86.045 58.5,86.045 
		58.5,90.045 64.5,90.045 64.5,73.045 58.5,73.045 	"/>
	<rect x="31.5" y="49.045" class="st3" width="4" height="2"/>
	<rect x="36.186" y="60.359" transform="matrix(0.7071 -0.7071 0.7071 0.7071 -32.203 44.9734)" class="st3" width="4" height="2"/>
	<rect x="59.814" y="59.357" transform="matrix(0.707 -0.7072 0.7072 0.707 -25.5737 60.985)" class="st3" width="2" height="4"/>
	<rect x="63.5" y="49.045" class="st3" width="4" height="2"/>
	<rect x="58.814" y="37.732" transform="matrix(0.7071 -0.7071 0.7071 0.7071 -9.5758 54.3464)" class="st3" width="4" height="2"/>
	<rect x="48.5" y="32.045" class="st3" width="2" height="4"/>
	<rect x="37.186" y="36.732" transform="matrix(0.707 -0.7072 0.7072 0.707 -16.2031 38.3537)" class="st3" width="2" height="4"/>
</g>
<g>
	<path class="st4" d="M243.432,42.666c0.934,0,1.688-0.754,1.688-1.688s-0.754-1.688-1.688-1.688s-1.688,0.754-1.688,1.688
		S242.498,42.666,243.432,42.666z M243.432,40.009c0.539,0,0.969,0.431,0.969,0.969s-0.431,0.969-0.969,0.969
		c-0.539,0-0.969-0.431-0.969-0.969C242.462,40.44,242.893,40.009,243.432,40.009z"/>
	<path class="st4" d="M247.489,42.666c0.934,0,1.688-0.754,1.688-1.688s-0.754-1.688-1.688-1.688s-1.688,0.754-1.688,1.688
		S246.555,42.666,247.489,42.666z M247.489,40.009c0.539,0,0.969,0.431,0.969,0.969s-0.431,0.969-0.969,0.969
		s-0.969-0.431-0.969-0.969C246.52,40.44,246.95,40.009,247.489,40.009z"/>
	<path class="st4" d="M251.546,42.666c0.934,0,1.688-0.754,1.688-1.688s-0.754-1.688-1.688-1.688s-1.688,0.754-1.688,1.688
		S250.613,42.666,251.546,42.666z M251.546,40.009c0.539,0,0.969,0.431,0.969,0.969s-0.431,0.969-0.969,0.969
		c-0.539,0-0.969-0.431-0.969-0.969C250.577,40.44,251.008,40.009,251.546,40.009z"/>
	<path class="st4" d="M258.368,86.434h-13.285c-0.215,0-0.359,0.144-0.359,0.359c0,0.215,0.144,0.359,0.359,0.359h13.285
		c0.215,0,0.359-0.144,0.359-0.359C258.727,86.577,258.583,86.434,258.368,86.434z"/>
	<path class="st4" d="M258.368,88.229h-13.285c-0.215,0-0.359,0.144-0.359,0.359s0.144,0.359,0.359,0.359h13.285
		c0.215,0,0.359-0.144,0.359-0.359S258.583,88.229,258.368,88.229z"/>
	<path class="st4" d="M258.368,90.024h-13.285c-0.215,0-0.359,0.144-0.359,0.359s0.144,0.359,0.359,0.359h13.285
		c0.215,0,0.359-0.144,0.359-0.359S258.583,90.024,258.368,90.024z"/>
	<path class="st4" d="M258.368,91.819h-13.285c-0.215,0-0.359,0.144-0.359,0.359s0.144,0.359,0.359,0.359h13.285
		c0.215,0,0.359-0.144,0.359-0.359S258.583,91.819,258.368,91.819z"/>
	<path class="st4" d="M277.038,86.434h-13.285c-0.215,0-0.359,0.144-0.359,0.359c0,0.215,0.144,0.359,0.359,0.359h13.285
		c0.215,0,0.359-0.144,0.359-0.359C277.397,86.577,277.254,86.434,277.038,86.434z"/>
	<path class="st4" d="M277.038,88.229h-13.285c-0.215,0-0.359,0.144-0.359,0.359s0.144,0.359,0.359,0.359h13.285
		c0.215,0,0.359-0.144,0.359-0.359S277.254,88.229,277.038,88.229z"/>
	<path class="st4" d="M277.038,90.024h-13.285c-0.215,0-0.359,0.144-0.359,0.359s0.144,0.359,0.359,0.359h13.285
		c0.215,0,0.359-0.144,0.359-0.359S277.254,90.024,277.038,90.024z"/>
	<path class="st4" d="M277.038,91.819h-13.285c-0.215,0-0.359,0.144-0.359,0.359s0.144,0.359,0.359,0.359h13.285
		c0.215,0,0.359-0.144,0.359-0.359S277.254,91.819,277.038,91.819z"/>
	<path class="st4" d="M295.35,86.434h-13.285c-0.215,0-0.359,0.144-0.359,0.359c0,0.215,0.144,0.359,0.359,0.359h13.285
		c0.215,0,0.359-0.144,0.359-0.359C295.709,86.577,295.565,86.434,295.35,86.434z"/>
	<path class="st4" d="M295.35,88.229h-13.285c-0.215,0-0.359,0.144-0.359,0.359s0.144,0.359,0.359,0.359h13.285
		c0.215,0,0.359-0.144,0.359-0.359S295.565,88.229,295.35,88.229z"/>
	<path class="st4" d="M295.35,90.024h-13.285c-0.215,0-0.359,0.144-0.359,0.359s0.144,0.359,0.359,0.359h13.285
		c0.215,0,0.359-0.144,0.359-0.359S295.565,90.024,295.35,90.024z"/>
	<path class="st4" d="M295.35,91.819h-13.285c-0.215,0-0.359,0.144-0.359,0.359s0.144,0.359,0.359,0.359h13.285
		c0.215,0,0.359-0.144,0.359-0.359S295.565,91.819,295.35,91.819z"/>
	<path class="st4" d="M300.699,59.003V44.318v-6.714h-61.038v6.714v14.577c0,0.072-0.108,0.144-0.108,0.251s0.108,0.215,0.108,0.251
		v37.089h61.038V59.29c0-0.036,0.036-0.108,0.036-0.144S300.699,59.039,300.699,59.003z M299.981,95.769H240.38V59.505h22.763
		c0.287,3.662,3.375,6.571,7.109,6.571c3.734,0,6.822-2.908,7.109-6.571h22.62V95.769z M270.252,60.008
		c2.118,0,3.985,1.544,4.38,3.626c-1.149,1.077-2.693,1.723-4.38,1.723c-1.688,0-3.231-0.646-4.38-1.723
		C266.267,61.552,268.134,60.008,270.252,60.008z M268.529,57.387c0-0.969,0.79-1.723,1.723-1.723c0.969,0,1.723,0.79,1.723,1.723
		c0,0.934-0.79,1.723-1.723,1.723C269.319,59.11,268.529,58.321,268.529,57.387z M271.545,59.47
		c0.682-0.431,1.149-1.221,1.149-2.082c0-1.364-1.113-2.442-2.441-2.442c-1.364,0-2.442,1.113-2.442,2.442
		c0,0.898,0.467,1.652,1.149,2.082c-1.759,0.467-3.16,1.795-3.662,3.555c-0.934-1.113-1.472-2.549-1.472-4.093
		c0-3.555,2.872-6.427,6.427-6.427c3.555,0,6.427,2.872,6.427,6.427c0,1.544-0.539,2.98-1.472,4.093
		C274.705,61.265,273.304,59.9,271.545,59.47z M299.981,58.787h-22.584c-0.072-3.878-3.231-7.037-7.145-7.037
		c-3.914,0-7.073,3.16-7.145,7.037H240.38V44.426h59.601V58.787z M299.981,43.707H240.38v-5.386h59.601V43.707z"/>
	<path class="st4" d="M244.329,83.561h14.362V69.2h-14.362V83.561z M245.047,69.918h12.926v12.926h-12.926V69.918z"/>
	<path class="st4" d="M263,83.561h14.362V69.2H263V83.561z M263.718,69.918h12.926v12.926h-12.926V69.918z"/>
	<path class="st4" d="M295.673,69.2h-14.362v14.362h14.362V69.2z M294.955,82.843h-12.926V69.918h12.926V82.843z"/>
</g>
<g id="Frame_2_">
	<g>
		<rect x="440.288" y="36.919" class="st5" width="59.81" height="58.252"/>
	</g>
</g>
<g id="Background_2_">
	<g>
		<rect x="444.844" y="41.596" class="st6" width="50.579" height="48.899"/>
	</g>
</g>
<g id="Shadow2_2_" class="st7">
	<g>
		<path class="st4" d="M483.079,53.22c0.12,0.08-3.356,3.716-3.356,3.716l4.481,3.531l-4.122,3.062l-10.308-9.948l-4.914,1.199
			l-3.116,9.948l-5.633,13.544l17.26,12.226h22.054V63.169C495.424,63.169,482.959,53.141,483.079,53.22z"/>
	</g>
</g>
<g id="Shadow_1_" class="st7">
	<g>
		<rect x="444.844" y="41.594" class="st4" width="50.579" height="1.678"/>
	</g>
</g>
<g id="Ai_1_">
	<g>
		<path class="st5" d="M462.943,71.266l-2.124,6.994h-4.65l7.909-24.68h5.749l8.019,24.68h-4.833l-2.234-6.994H462.943z
			 M470.01,67.86l-1.941-6.078c-0.476-1.501-0.879-3.186-1.245-4.614h-0.073c-0.366,1.428-0.732,3.149-1.172,4.614l-1.904,6.078
			H470.01z"/>
		<path class="st5" d="M484.436,55.447c0,1.355-0.989,2.417-2.563,2.417c-1.501,0-2.49-1.062-2.49-2.417
			c0-1.391,1.025-2.453,2.527-2.453C483.448,52.994,484.4,54.056,484.436,55.447z M479.64,78.259V60.427h4.54v17.832L479.64,78.259
			L479.64,78.259z"/>
	</g>
</g>
<g>
	<rect y="154" class="st8" width="129" height="40"/>
	<path class="st9" d="M30.457,163.525c0.177,0.266,0.336,0.492,0.477,0.68s0.277,0.341,0.41,0.461s0.271,0.208,0.414,0.266
		c0.143,0.058,0.306,0.089,0.488,0.094v1.055h-2.633c-0.188-0.136-0.378-0.333-0.57-0.594c-0.193-0.261-0.396-0.565-0.609-0.914
		l-1.172-1.914c-0.136-0.219-0.258-0.401-0.367-0.547s-0.211-0.276-0.305-0.391c-0.089,0.005-0.167,0.008-0.234,0.008
		c-0.068,0-0.136,0-0.203,0c-0.062,0-0.126,0-0.191,0c-0.065,0-0.137-0.003-0.215-0.008v1.727c0,0.292-0.005,0.571-0.016,0.84
		c-0.011,0.269-0.026,0.47-0.047,0.605l1.359-0.047v1.234h-4.75v-1.055c0.177-0.011,0.337-0.027,0.48-0.051
		c0.143-0.023,0.263-0.081,0.359-0.172c0.096-0.091,0.17-0.228,0.223-0.41c0.052-0.183,0.078-0.435,0.078-0.758v-6.133
		c0-0.146,0.001-0.289,0.004-0.43c0.002-0.141,0.006-0.274,0.012-0.402c0.005-0.128,0.012-0.243,0.02-0.348s0.017-0.19,0.027-0.258
		l-1.203,0.047v-1.234l4.555-0.031c0.692,0,1.319,0.058,1.879,0.172c0.56,0.114,1.04,0.304,1.441,0.566
		c0.401,0.263,0.708,0.605,0.922,1.027c0.213,0.422,0.32,0.94,0.32,1.555c0.005,0.354-0.05,0.696-0.164,1.027
		c-0.115,0.331-0.288,0.634-0.52,0.91c-0.232,0.276-0.523,0.523-0.875,0.742s-0.767,0.396-1.246,0.531v0.016
		c0.198,0.078,0.396,0.211,0.594,0.398c0.198,0.188,0.367,0.388,0.508,0.602L30.457,163.525z M26.527,160.572
		c0.442,0,0.82-0.048,1.133-0.145s0.567-0.245,0.766-0.445c0.198-0.2,0.344-0.452,0.438-0.754s0.141-0.656,0.141-1.062
		c0-0.344-0.039-0.637-0.117-0.879s-0.18-0.444-0.305-0.605s-0.267-0.289-0.426-0.383c-0.159-0.094-0.319-0.165-0.48-0.215
		c-0.162-0.05-0.316-0.081-0.465-0.094s-0.277-0.02-0.387-0.02c-0.172,0-0.324,0.013-0.457,0.039s-0.245,0.083-0.336,0.172
		c-0.091,0.089-0.162,0.216-0.211,0.383c-0.05,0.167-0.074,0.391-0.074,0.672v3.281c0.125,0.016,0.252,0.028,0.383,0.039
		C26.259,160.567,26.392,160.572,26.527,160.572z"/>
	<path class="st9" d="M36.715,160.83v2.63c0,0.146-0.001,0.288-0.004,0.427c-0.003,0.139-0.007,0.271-0.012,0.396
		c-0.005,0.125-0.012,0.238-0.02,0.341c-0.008,0.102-0.017,0.186-0.027,0.254l2.148-0.008c0.234,0,0.469-0.039,0.703-0.117
		c0.234-0.079,0.442-0.208,0.625-0.389c0.182-0.18,0.331-0.418,0.445-0.713c0.114-0.295,0.172-0.66,0.172-1.094h1.055l-0.094,3.523
		h-8.445v-1.047c0.177-0.011,0.337-0.028,0.48-0.055c0.143-0.026,0.263-0.084,0.359-0.172c0.096-0.089,0.17-0.225,0.223-0.406
		c0.052-0.183,0.078-0.436,0.078-0.759v-6.139c0-0.146,0.001-0.289,0.004-0.43c0.002-0.141,0.006-0.275,0.012-0.402
		c0.005-0.128,0.012-0.244,0.02-0.349c0.008-0.104,0.017-0.189,0.027-0.258l-1.203,0.047v-1.234h8.008l0.094,3.102h-1.055
		c0-0.433-0.062-0.784-0.184-1.055c-0.123-0.271-0.277-0.481-0.465-0.633s-0.396-0.253-0.625-0.305
		c-0.229-0.052-0.453-0.075-0.672-0.07l-0.578,0.016c-0.167,0.005-0.316,0.022-0.449,0.051s-0.245,0.09-0.336,0.184
		c-0.091,0.094-0.162,0.231-0.211,0.414c-0.05,0.183-0.074,0.43-0.074,0.742v2.398h1.883l-0.07-1.383h1.234v3.891h-1.055
		c0-0.333-0.042-0.597-0.125-0.789c-0.083-0.192-0.195-0.336-0.336-0.43s-0.306-0.149-0.496-0.168
		c-0.19-0.019-0.395-0.024-0.613-0.02L36.715,160.83z"/>
	<path class="st9" d="M47.402,165.182c0.286,0,0.548-0.039,0.785-0.117c0.237-0.078,0.44-0.187,0.609-0.324
		c0.169-0.138,0.301-0.298,0.395-0.48s0.141-0.378,0.141-0.586c0-0.281-0.077-0.523-0.23-0.727
		c-0.154-0.203-0.354-0.382-0.602-0.535c-0.248-0.153-0.523-0.292-0.828-0.414s-0.608-0.243-0.91-0.363
		c-0.516-0.208-0.995-0.433-1.438-0.672c-0.443-0.239-0.826-0.516-1.148-0.828c-0.323-0.312-0.576-0.669-0.758-1.07
		c-0.183-0.401-0.273-0.864-0.273-1.391c0-0.219,0.027-0.446,0.082-0.684s0.141-0.469,0.258-0.695s0.272-0.441,0.465-0.645
		c0.192-0.203,0.428-0.382,0.707-0.535c0.278-0.153,0.602-0.274,0.969-0.363s0.788-0.133,1.262-0.133
		c0.208,0,0.432,0.017,0.672,0.051c0.239,0.034,0.479,0.082,0.719,0.145c0.239,0.062,0.47,0.142,0.691,0.238
		c0.221,0.097,0.42,0.207,0.598,0.332h0.016l-0.055-0.656h1.234v3.742h-1.047c-0.146-0.911-0.457-1.589-0.934-2.031
		s-1.09-0.664-1.84-0.664c-0.229,0-0.447,0.034-0.652,0.102c-0.206,0.067-0.388,0.163-0.547,0.285
		c-0.159,0.122-0.285,0.269-0.379,0.438s-0.141,0.353-0.141,0.551c0,0.25,0.052,0.474,0.156,0.672
		c0.104,0.198,0.263,0.383,0.477,0.555c0.213,0.172,0.481,0.339,0.805,0.5c0.323,0.161,0.706,0.331,1.148,0.508
		c0.266,0.109,0.542,0.229,0.828,0.359c0.286,0.13,0.565,0.274,0.836,0.434c0.271,0.159,0.527,0.336,0.77,0.531
		s0.453,0.413,0.633,0.652s0.323,0.504,0.43,0.793c0.106,0.289,0.16,0.608,0.16,0.957c0,0.474-0.098,0.909-0.293,1.305
		s-0.473,0.735-0.832,1.02s-0.792,0.505-1.297,0.664c-0.505,0.159-1.068,0.238-1.688,0.238c-0.208,0-0.43-0.017-0.664-0.051
		s-0.472-0.083-0.711-0.148c-0.24-0.065-0.478-0.147-0.715-0.246c-0.237-0.099-0.462-0.214-0.676-0.344h-0.016l0.055,0.68h-1.234
		v-3.742h1.047c0.073,0.448,0.198,0.84,0.375,1.176c0.177,0.336,0.395,0.617,0.652,0.844s0.551,0.396,0.879,0.508
		S47.027,165.182,47.402,165.182z"/>
	<path class="st9" d="M56.27,160.83v2.63c0,0.146-0.001,0.288-0.004,0.427c-0.003,0.139-0.007,0.271-0.012,0.396
		c-0.005,0.125-0.012,0.238-0.02,0.341c-0.008,0.102-0.017,0.186-0.027,0.254l2.148-0.008c0.234,0,0.469-0.039,0.703-0.117
		c0.234-0.079,0.442-0.208,0.625-0.389c0.182-0.18,0.331-0.418,0.445-0.713c0.114-0.295,0.172-0.66,0.172-1.094h1.055l-0.094,3.523
		h-8.445v-1.047c0.177-0.011,0.337-0.028,0.48-0.055c0.143-0.026,0.263-0.084,0.359-0.172c0.096-0.089,0.17-0.225,0.223-0.406
		c0.052-0.183,0.078-0.436,0.078-0.759v-6.139c0-0.146,0.001-0.289,0.004-0.43c0.002-0.141,0.006-0.275,0.012-0.402
		c0.005-0.128,0.012-0.244,0.02-0.349c0.008-0.104,0.017-0.189,0.027-0.258l-1.203,0.047v-1.234h8.008l0.094,3.102h-1.055
		c0-0.433-0.062-0.784-0.184-1.055c-0.123-0.271-0.277-0.481-0.465-0.633s-0.396-0.253-0.625-0.305
		c-0.229-0.052-0.453-0.075-0.672-0.07l-0.578,0.016c-0.167,0.005-0.316,0.022-0.449,0.051s-0.245,0.09-0.336,0.184
		c-0.091,0.094-0.162,0.231-0.211,0.414c-0.05,0.183-0.074,0.43-0.074,0.742v2.398h1.883l-0.07-1.383h1.234v3.891h-1.055
		c0-0.333-0.042-0.597-0.125-0.789c-0.083-0.192-0.195-0.336-0.336-0.43s-0.306-0.149-0.496-0.168
		c-0.19-0.019-0.395-0.024-0.613-0.02L56.27,160.83z"/>
	<path class="st9" d="M68.598,162.729l-3.477,0.062l-0.258,0.753c-0.026,0.073-0.059,0.165-0.098,0.274
		c-0.039,0.11-0.083,0.227-0.133,0.35c-0.05,0.122-0.099,0.242-0.148,0.36c-0.05,0.117-0.093,0.224-0.129,0.317l1.141-0.047v1.281
		h-3.43v-1.102c0.224,0,0.413-0.051,0.566-0.152c0.153-0.102,0.288-0.235,0.402-0.402c0.114-0.167,0.216-0.36,0.305-0.582
		c0.088-0.222,0.177-0.452,0.266-0.691l3.125-8.555h1.109l3.414,8.719c0.031,0.078,0.069,0.183,0.113,0.312
		c0.044,0.13,0.09,0.27,0.137,0.418s0.088,0.297,0.125,0.445c0.036,0.148,0.062,0.282,0.078,0.402l0.922-0.047v1.234h-4.312v-1.055
		c0.286,0,0.487-0.057,0.602-0.168c0.114-0.113,0.172-0.266,0.172-0.459c0-0.109-0.016-0.231-0.047-0.364
		c-0.031-0.134-0.073-0.276-0.125-0.428L68.598,162.729z M65.527,161.604h2.664l-0.727-2.008c-0.141-0.391-0.266-0.777-0.375-1.16
		s-0.19-0.723-0.242-1.02h-0.016c-0.042,0.183-0.107,0.453-0.195,0.812c-0.089,0.359-0.219,0.792-0.391,1.297L65.527,161.604z"/>
	<path class="st9" d="M81.652,163.525c0.177,0.266,0.336,0.492,0.477,0.68s0.277,0.341,0.41,0.461s0.271,0.208,0.414,0.266
		c0.143,0.058,0.306,0.089,0.488,0.094v1.055h-2.633c-0.188-0.136-0.378-0.333-0.57-0.594c-0.193-0.261-0.396-0.565-0.609-0.914
		l-1.172-1.914c-0.136-0.219-0.258-0.401-0.367-0.547s-0.211-0.276-0.305-0.391c-0.089,0.005-0.167,0.008-0.234,0.008
		c-0.068,0-0.136,0-0.203,0c-0.062,0-0.126,0-0.191,0c-0.065,0-0.137-0.003-0.215-0.008v1.727c0,0.292-0.005,0.571-0.016,0.84
		c-0.011,0.269-0.026,0.47-0.047,0.605l1.359-0.047v1.234h-4.75v-1.055c0.177-0.011,0.337-0.027,0.48-0.051
		c0.143-0.023,0.263-0.081,0.359-0.172c0.096-0.091,0.17-0.228,0.223-0.41c0.052-0.183,0.078-0.435,0.078-0.758v-6.133
		c0-0.146,0.001-0.289,0.004-0.43c0.002-0.141,0.006-0.274,0.012-0.402c0.005-0.128,0.012-0.243,0.02-0.348s0.017-0.19,0.027-0.258
		l-1.203,0.047v-1.234l4.555-0.031c0.692,0,1.319,0.058,1.879,0.172c0.56,0.114,1.04,0.304,1.441,0.566
		c0.401,0.263,0.708,0.605,0.922,1.027c0.213,0.422,0.32,0.94,0.32,1.555c0.005,0.354-0.05,0.696-0.164,1.027
		c-0.115,0.331-0.288,0.634-0.52,0.91c-0.232,0.276-0.523,0.523-0.875,0.742s-0.767,0.396-1.246,0.531v0.016
		c0.198,0.078,0.396,0.211,0.594,0.398c0.198,0.188,0.367,0.388,0.508,0.602L81.652,163.525z M77.723,160.572
		c0.442,0,0.82-0.048,1.133-0.145s0.567-0.245,0.766-0.445c0.198-0.2,0.344-0.452,0.438-0.754s0.141-0.656,0.141-1.062
		c0-0.344-0.039-0.637-0.117-0.879s-0.18-0.444-0.305-0.605s-0.267-0.289-0.426-0.383c-0.159-0.094-0.319-0.165-0.48-0.215
		c-0.162-0.05-0.316-0.081-0.465-0.094s-0.277-0.02-0.387-0.02c-0.172,0-0.324,0.013-0.457,0.039s-0.245,0.083-0.336,0.172
		c-0.091,0.089-0.162,0.216-0.211,0.383c-0.05,0.167-0.074,0.391-0.074,0.672v3.281c0.125,0.016,0.252,0.028,0.383,0.039
		C77.454,160.567,77.587,160.572,77.723,160.572z"/>
	<path class="st9" d="M86.66,160.314c0,0.692,0.074,1.328,0.223,1.906s0.364,1.077,0.648,1.496c0.284,0.419,0.634,0.745,1.051,0.977
		c0.417,0.231,0.896,0.348,1.438,0.348c0.333,0,0.669-0.044,1.008-0.133c0.338-0.089,0.667-0.218,0.984-0.387
		c0.317-0.169,0.618-0.376,0.902-0.621c0.284-0.245,0.538-0.521,0.762-0.828l0.766,0.703c-0.391,0.542-0.8,0.979-1.227,1.312
		c-0.427,0.333-0.852,0.593-1.273,0.777s-0.831,0.31-1.227,0.375c-0.396,0.065-0.758,0.098-1.086,0.098
		c-0.828,0-1.58-0.147-2.254-0.441c-0.675-0.294-1.251-0.698-1.73-1.211c-0.479-0.513-0.849-1.116-1.109-1.809
		c-0.261-0.692-0.391-1.438-0.391-2.234c0-0.484,0.052-0.97,0.156-1.457c0.104-0.487,0.259-0.953,0.465-1.398
		c0.206-0.445,0.465-0.86,0.777-1.246s0.676-0.722,1.09-1.008s0.88-0.511,1.398-0.672c0.518-0.161,1.087-0.242,1.707-0.242
		c0.208,0,0.428,0.017,0.66,0.051c0.231,0.034,0.467,0.085,0.707,0.152c0.239,0.067,0.477,0.149,0.711,0.246s0.458,0.21,0.672,0.34
		h0.016l-0.055-0.68h1.234v3.742h-1.047c-0.146-0.891-0.44-1.562-0.883-2.012c-0.443-0.45-1.044-0.676-1.805-0.676
		c-0.558,0-1.043,0.128-1.457,0.383s-0.757,0.594-1.027,1.016c-0.271,0.422-0.473,0.905-0.605,1.449S86.66,159.736,86.66,160.314z"
		/>
	<path class="st9" d="M105.566,163.455c0,0.146-0.001,0.289-0.004,0.43c-0.003,0.141-0.007,0.274-0.012,0.402
		c-0.005,0.128-0.012,0.243-0.02,0.348s-0.017,0.19-0.027,0.258l1.203-0.047v1.234h-4.594v-1.055
		c0.177-0.011,0.337-0.027,0.48-0.051c0.143-0.023,0.263-0.081,0.359-0.172c0.096-0.091,0.17-0.228,0.223-0.41
		c0.052-0.183,0.078-0.435,0.078-0.758v-2.594l-4.406,0.055v2.359c0,0.146-0.001,0.289-0.004,0.43
		c-0.003,0.141-0.007,0.274-0.012,0.402c-0.005,0.128-0.012,0.243-0.02,0.348s-0.017,0.19-0.027,0.258l1.203-0.047v1.234h-4.594
		v-1.055c0.177-0.011,0.337-0.027,0.48-0.051c0.143-0.023,0.263-0.081,0.359-0.172c0.096-0.091,0.17-0.228,0.223-0.41
		c0.052-0.183,0.078-0.435,0.078-0.758v-6.133c0-0.146,0.001-0.289,0.004-0.43c0.002-0.141,0.006-0.274,0.012-0.402
		c0.005-0.128,0.012-0.243,0.02-0.348s0.017-0.19,0.027-0.258l-1.203,0.047v-1.234h4.594v1.055
		c-0.183,0.011-0.344,0.028-0.484,0.055s-0.259,0.083-0.355,0.172c-0.097,0.089-0.171,0.224-0.223,0.406
		c-0.052,0.183-0.078,0.435-0.078,0.758v2.508h4.406v-2.328c0-0.146,0.001-0.289,0.004-0.43c0.002-0.141,0.006-0.274,0.012-0.402
		c0.005-0.128,0.012-0.243,0.02-0.348s0.017-0.19,0.027-0.258l-1.203,0.047v-1.234h4.594v1.055
		c-0.183,0.011-0.344,0.028-0.484,0.055s-0.259,0.083-0.355,0.172c-0.097,0.089-0.171,0.224-0.223,0.406
		c-0.052,0.183-0.078,0.435-0.078,0.758V163.455z"/>
</g>
<g>
	<rect x="205.896" y="154" class="st8" width="129" height="40"/>
	<path class="st9" d="M228.267,154.877l1.812,5.898c0.114,0.375,0.217,0.751,0.309,1.129c0.091,0.378,0.181,0.77,0.27,1.176h0.016
		c0.094-0.359,0.192-0.72,0.297-1.082c0.104-0.362,0.208-0.738,0.312-1.129l0.891-3.352c0.073-0.255,0.161-0.517,0.266-0.785
		c0.104-0.269,0.234-0.491,0.391-0.668v-0.016l-1.227,0.062v-1.234h3.602v1.055c-0.177,0.011-0.347,0.047-0.508,0.109
		c-0.162,0.062-0.314,0.16-0.457,0.293c-0.144,0.133-0.276,0.306-0.398,0.52c-0.123,0.214-0.233,0.477-0.332,0.789l-2.617,8.531
		h-1.414l-1.898-5.727c-0.141-0.422-0.254-0.829-0.34-1.223s-0.166-0.772-0.238-1.137h-0.016c-0.058,0.364-0.124,0.714-0.199,1.047
		c-0.076,0.333-0.168,0.68-0.277,1.039l-1.82,6h-1.391l-2.852-8.617c-0.058-0.13-0.113-0.266-0.168-0.406s-0.103-0.277-0.145-0.41
		c-0.042-0.133-0.076-0.257-0.102-0.371c-0.026-0.114-0.039-0.216-0.039-0.305l-0.852,0.047v-1.234h4.711v1.055h-0.094
		c-0.292,0-0.52,0.051-0.684,0.152s-0.246,0.282-0.246,0.543c-0.005,0.073,0,0.151,0.016,0.234s0.036,0.175,0.062,0.273l0.961,3.656
		c0.047,0.183,0.092,0.354,0.137,0.516c0.044,0.161,0.088,0.329,0.133,0.504c0.044,0.175,0.088,0.362,0.133,0.562
		c0.044,0.2,0.09,0.429,0.137,0.684h0.016c0.026-0.094,0.062-0.23,0.109-0.41s0.1-0.378,0.16-0.594
		c0.06-0.216,0.122-0.441,0.188-0.676c0.065-0.234,0.127-0.457,0.188-0.668c0.06-0.211,0.113-0.398,0.16-0.562
		s0.083-0.285,0.109-0.363l1.484-4.906H228.267z"/>
	<path class="st9" d="M239.431,160.83v2.63c0,0.146-0.001,0.288-0.004,0.427c-0.003,0.139-0.007,0.271-0.012,0.396
		c-0.005,0.125-0.012,0.238-0.02,0.341c-0.008,0.102-0.017,0.186-0.027,0.254l2.148-0.008c0.234,0,0.469-0.039,0.703-0.117
		c0.234-0.079,0.442-0.208,0.625-0.389c0.182-0.18,0.331-0.418,0.445-0.713c0.114-0.295,0.172-0.66,0.172-1.094h1.055l-0.094,3.523
		h-8.445v-1.047c0.177-0.011,0.337-0.028,0.48-0.055c0.143-0.026,0.263-0.084,0.359-0.172c0.096-0.089,0.17-0.225,0.223-0.406
		c0.052-0.183,0.078-0.436,0.078-0.759v-6.139c0-0.146,0.001-0.289,0.004-0.43c0.002-0.141,0.006-0.275,0.012-0.402
		c0.005-0.128,0.012-0.244,0.02-0.349c0.008-0.104,0.017-0.189,0.027-0.258l-1.203,0.047v-1.234h8.008l0.094,3.102h-1.055
		c0-0.433-0.062-0.784-0.184-1.055c-0.123-0.271-0.277-0.481-0.465-0.633s-0.396-0.253-0.625-0.305
		c-0.229-0.052-0.453-0.075-0.672-0.07l-0.578,0.016c-0.167,0.005-0.316,0.022-0.449,0.051s-0.245,0.09-0.336,0.184
		c-0.091,0.094-0.162,0.231-0.211,0.414c-0.05,0.183-0.074,0.43-0.074,0.742v2.398h1.883l-0.07-1.383h1.234v3.891h-1.055
		c0-0.333-0.042-0.597-0.125-0.789c-0.083-0.192-0.195-0.336-0.336-0.43s-0.306-0.149-0.496-0.168
		c-0.19-0.019-0.395-0.024-0.613-0.02L239.431,160.83z"/>
	<path class="st9" d="M245.962,165.025c0.177-0.011,0.337-0.027,0.48-0.051c0.143-0.023,0.263-0.081,0.359-0.172
		c0.096-0.091,0.17-0.228,0.223-0.41c0.052-0.183,0.078-0.435,0.078-0.758v-6.133c0-0.146,0.001-0.289,0.004-0.43
		c0.002-0.141,0.006-0.274,0.012-0.402c0.005-0.128,0.012-0.243,0.02-0.348s0.017-0.19,0.027-0.258l-1.203,0.047v-1.234l4.438-0.031
		c0.62,0,1.181,0.056,1.684,0.168c0.502,0.112,0.932,0.281,1.289,0.508c0.356,0.227,0.631,0.512,0.824,0.855
		c0.192,0.344,0.289,0.75,0.289,1.219c0,0.271-0.044,0.521-0.133,0.75c-0.089,0.229-0.226,0.45-0.41,0.664
		c-0.185,0.214-0.422,0.407-0.711,0.582s-0.634,0.316-1.035,0.426v0.016c0.531,0.083,0.991,0.218,1.379,0.402
		c0.388,0.185,0.709,0.403,0.965,0.656c0.255,0.253,0.445,0.534,0.57,0.844s0.188,0.632,0.188,0.965
		c0,0.521-0.098,0.979-0.293,1.375s-0.466,0.728-0.812,0.996c-0.347,0.269-0.757,0.47-1.23,0.605
		c-0.474,0.136-0.992,0.203-1.555,0.203h-5.445V165.025z M249.353,164.947c0.281,0,0.549-0.001,0.805-0.004
		c0.255-0.003,0.508-0.009,0.758-0.02c0.323-0.016,0.602-0.077,0.836-0.184s0.427-0.251,0.578-0.434
		c0.151-0.183,0.263-0.397,0.336-0.645c0.073-0.247,0.109-0.52,0.109-0.816c0-0.364-0.059-0.671-0.176-0.918
		s-0.273-0.446-0.469-0.598s-0.417-0.258-0.664-0.32c-0.248-0.062-0.499-0.094-0.754-0.094c-0.505,0-0.938,0.005-1.297,0.016v2.602
		c0,0.146-0.001,0.288-0.004,0.426c-0.003,0.138-0.007,0.27-0.012,0.395c-0.005,0.125-0.012,0.238-0.02,0.34
		S249.363,164.88,249.353,164.947z M250.251,159.775c0.338-0.005,0.622-0.065,0.852-0.18c0.229-0.114,0.414-0.27,0.555-0.465
		s0.241-0.421,0.301-0.676c0.06-0.255,0.09-0.531,0.09-0.828c0-0.323-0.051-0.591-0.152-0.805s-0.232-0.383-0.391-0.508
		c-0.159-0.125-0.34-0.214-0.543-0.266s-0.406-0.078-0.609-0.078c-0.13,0.005-0.253,0.021-0.367,0.047
		c-0.115,0.026-0.214,0.085-0.297,0.176c-0.083,0.091-0.15,0.224-0.199,0.398c-0.05,0.175-0.074,0.415-0.074,0.723v2.484
		L250.251,159.775z"/>
	<path class="st9" d="M260.751,154.877l4.664-0.016c0.703,0,1.342,0.073,1.918,0.219c0.575,0.146,1.09,0.349,1.543,0.609
		s0.846,0.567,1.18,0.922c0.333,0.354,0.609,0.735,0.828,1.145s0.381,0.836,0.488,1.281c0.106,0.445,0.16,0.89,0.16,1.332
		c0,0.433-0.05,0.874-0.148,1.324c-0.099,0.45-0.254,0.888-0.465,1.312s-0.48,0.823-0.809,1.195s-0.722,0.698-1.18,0.977
		c-0.458,0.278-0.986,0.499-1.582,0.66c-0.597,0.161-1.267,0.242-2.012,0.242h-4.586v-1.055c0.177-0.011,0.337-0.028,0.48-0.055
		c0.143-0.026,0.263-0.083,0.359-0.172c0.096-0.089,0.17-0.224,0.223-0.406c0.052-0.183,0.078-0.435,0.078-0.758v-6.133
		c0-0.146,0.001-0.289,0.004-0.43c0.002-0.141,0.006-0.274,0.012-0.402c0.005-0.128,0.012-0.243,0.02-0.348s0.017-0.19,0.027-0.258
		l-1.203,0.047V154.877z M265.384,155.932c-0.198-0.005-0.371,0.005-0.52,0.031s-0.271,0.086-0.367,0.18
		c-0.097,0.094-0.169,0.231-0.219,0.414c-0.05,0.183-0.074,0.427-0.074,0.734v6.164c0,0.146-0.001,0.289-0.004,0.43
		c-0.003,0.141-0.007,0.274-0.012,0.402c-0.005,0.128-0.012,0.243-0.02,0.348s-0.017,0.19-0.027,0.258
		c0.078-0.005,0.184-0.008,0.316-0.008s0.273,0.003,0.422,0.008s0.294,0.009,0.438,0.012c0.143,0.003,0.262,0.004,0.355,0.004
		c0.583,0,1.084-0.118,1.504-0.355c0.419-0.237,0.764-0.552,1.035-0.945c0.271-0.394,0.471-0.843,0.602-1.348
		c0.13-0.505,0.195-1.023,0.195-1.555c0-0.817-0.085-1.523-0.254-2.117c-0.169-0.594-0.412-1.085-0.727-1.473
		c-0.315-0.388-0.697-0.679-1.145-0.871C266.436,156.052,265.936,155.947,265.384,155.932z"/>
	<path class="st9" d="M276.126,160.83v2.63c0,0.146-0.001,0.288-0.004,0.427c-0.003,0.139-0.007,0.271-0.012,0.396
		c-0.005,0.125-0.012,0.238-0.02,0.341c-0.008,0.102-0.017,0.186-0.027,0.254l2.148-0.008c0.234,0,0.469-0.039,0.703-0.117
		c0.234-0.079,0.442-0.208,0.625-0.389c0.182-0.18,0.331-0.418,0.445-0.713c0.114-0.295,0.172-0.66,0.172-1.094h1.055l-0.094,3.523
		h-8.445v-1.047c0.177-0.011,0.337-0.028,0.48-0.055c0.143-0.026,0.263-0.084,0.359-0.172c0.096-0.089,0.17-0.225,0.223-0.406
		c0.052-0.183,0.078-0.436,0.078-0.759v-6.139c0-0.146,0.001-0.289,0.004-0.43c0.002-0.141,0.006-0.275,0.012-0.402
		c0.005-0.128,0.012-0.244,0.02-0.349c0.008-0.104,0.017-0.189,0.027-0.258l-1.203,0.047v-1.234h8.008l0.094,3.102h-1.055
		c0-0.433-0.062-0.784-0.184-1.055c-0.123-0.271-0.277-0.481-0.465-0.633s-0.396-0.253-0.625-0.305
		c-0.229-0.052-0.453-0.075-0.672-0.07l-0.578,0.016c-0.167,0.005-0.316,0.022-0.449,0.051s-0.245,0.09-0.336,0.184
		c-0.091,0.094-0.162,0.231-0.211,0.414c-0.05,0.183-0.074,0.43-0.074,0.742v2.398h1.883l-0.07-1.383h1.234v3.891h-1.055
		c0-0.333-0.042-0.597-0.125-0.789c-0.083-0.192-0.195-0.336-0.336-0.43s-0.306-0.149-0.496-0.168
		c-0.19-0.019-0.395-0.024-0.613-0.02L276.126,160.83z"/>
	<path class="st9" d="M286.814,165.182c0.287,0,0.548-0.039,0.786-0.117c0.236-0.078,0.439-0.187,0.609-0.324
		c0.169-0.138,0.301-0.298,0.395-0.48s0.141-0.378,0.141-0.586c0-0.281-0.077-0.523-0.23-0.727
		c-0.154-0.203-0.354-0.382-0.602-0.535c-0.248-0.153-0.523-0.292-0.828-0.414c-0.305-0.122-0.609-0.243-0.911-0.363
		c-0.516-0.208-0.995-0.433-1.438-0.672c-0.443-0.239-0.826-0.516-1.148-0.828c-0.323-0.312-0.576-0.669-0.758-1.07
		c-0.183-0.401-0.273-0.864-0.273-1.391c0-0.219,0.027-0.446,0.082-0.684s0.141-0.469,0.258-0.695s0.272-0.441,0.465-0.645
		c0.192-0.203,0.428-0.382,0.707-0.535c0.278-0.153,0.602-0.274,0.969-0.363s0.788-0.133,1.262-0.133
		c0.208,0,0.432,0.017,0.672,0.051s0.479,0.082,0.719,0.145c0.239,0.062,0.47,0.142,0.691,0.238c0.221,0.097,0.42,0.207,0.598,0.332
		h0.016l-0.055-0.656h1.234v3.742h-1.047c-0.146-0.911-0.457-1.589-0.934-2.031s-1.09-0.664-1.84-0.664
		c-0.229,0-0.447,0.034-0.652,0.102c-0.206,0.067-0.388,0.163-0.547,0.285c-0.159,0.122-0.285,0.269-0.379,0.438
		s-0.141,0.353-0.141,0.551c0,0.25,0.052,0.474,0.156,0.672c0.104,0.198,0.263,0.383,0.477,0.555c0.213,0.172,0.481,0.339,0.805,0.5
		c0.323,0.161,0.706,0.331,1.149,0.508c0.266,0.109,0.541,0.229,0.828,0.359c0.286,0.13,0.564,0.274,0.836,0.434
		c0.271,0.159,0.527,0.336,0.77,0.531s0.453,0.413,0.633,0.652s0.322,0.504,0.43,0.793c0.106,0.289,0.16,0.608,0.16,0.957
		c0,0.474-0.098,0.909-0.293,1.305s-0.473,0.735-0.832,1.02s-0.792,0.505-1.297,0.664c-0.506,0.159-1.068,0.238-1.688,0.238
		c-0.208,0-0.43-0.017-0.664-0.051s-0.472-0.083-0.711-0.148c-0.24-0.065-0.478-0.147-0.715-0.246
		c-0.237-0.099-0.462-0.214-0.676-0.344h-0.016l0.055,0.68h-1.234v-3.742h1.047c0.073,0.448,0.198,0.84,0.375,1.176
		c0.177,0.336,0.395,0.617,0.652,0.844s0.551,0.396,0.879,0.508S286.439,165.182,286.814,165.182z"/>
	<path class="st9" d="M295.682,163.455c0,0.146-0.002,0.289-0.004,0.43c-0.003,0.141-0.007,0.274-0.012,0.402
		c-0.006,0.128-0.012,0.243-0.02,0.348s-0.018,0.19-0.027,0.258l1.203-0.047v1.234h-4.594v-1.055
		c0.177-0.011,0.337-0.027,0.48-0.051c0.143-0.023,0.263-0.081,0.359-0.172c0.096-0.091,0.17-0.228,0.223-0.41
		c0.052-0.183,0.078-0.435,0.078-0.758v-6.133c0-0.146,0.001-0.289,0.004-0.43c0.002-0.141,0.006-0.274,0.012-0.402
		c0.005-0.128,0.012-0.243,0.02-0.348s0.017-0.19,0.027-0.258l-1.203,0.047v-1.234h4.594v1.055
		c-0.183,0.011-0.344,0.028-0.484,0.055s-0.26,0.083-0.355,0.172c-0.097,0.089-0.171,0.224-0.223,0.406
		c-0.053,0.183-0.078,0.435-0.078,0.758V163.455z"/>
	<path class="st9" d="M308.15,165.541h-0.391c-0.308,0-0.613,0.042-0.918,0.125s-0.627,0.175-0.965,0.273
		c-0.339,0.099-0.706,0.19-1.102,0.273c-0.396,0.083-0.839,0.125-1.328,0.125c-0.87,0-1.644-0.147-2.32-0.441
		c-0.678-0.294-1.248-0.698-1.711-1.211c-0.464-0.513-0.816-1.116-1.059-1.809s-0.363-1.438-0.363-2.234
		c0-0.484,0.051-0.97,0.152-1.457s0.255-0.953,0.461-1.398c0.205-0.445,0.462-0.86,0.77-1.246c0.307-0.386,0.668-0.722,1.082-1.008
		s0.879-0.511,1.395-0.672s1.083-0.242,1.703-0.242c0.208,0,0.443,0.017,0.707,0.051c0.263,0.034,0.531,0.085,0.805,0.152
		s0.541,0.149,0.805,0.246c0.263,0.097,0.501,0.21,0.715,0.34h0.016l-0.055-0.68h1.234v3.742h-1.047
		c-0.073-0.448-0.198-0.84-0.375-1.176c-0.178-0.336-0.396-0.616-0.656-0.84c-0.261-0.224-0.555-0.392-0.883-0.504
		s-0.68-0.168-1.055-0.168c-0.558,0-1.042,0.128-1.453,0.383c-0.412,0.255-0.752,0.594-1.02,1.016
		c-0.269,0.422-0.468,0.905-0.598,1.449c-0.131,0.544-0.195,1.105-0.195,1.684c0,0.692,0.071,1.329,0.215,1.91
		c0.143,0.581,0.355,1.082,0.637,1.504s0.629,0.75,1.043,0.984s0.895,0.352,1.441,0.352c0.156,0,0.333-0.009,0.531-0.027
		c0.197-0.019,0.4-0.044,0.609-0.078c0.208-0.034,0.41-0.078,0.605-0.133s0.368-0.118,0.52-0.191v-1.484
		c0-0.146,0.001-0.289,0.004-0.43c0.002-0.141,0.006-0.274,0.012-0.402c0.005-0.128,0.012-0.243,0.02-0.348s0.017-0.19,0.027-0.258
		l-1.203,0.047v-1.234h4.25v1.055c-0.183,0.011-0.34,0.031-0.473,0.062s-0.242,0.095-0.328,0.191s-0.151,0.234-0.195,0.414
		c-0.045,0.18-0.066,0.421-0.066,0.723V165.541z"/>
	<path class="st9" d="M320.158,166.236h-1.359l-5.117-6.539c-0.271-0.349-0.562-0.747-0.875-1.195h-0.016l0.023,4.953
		c0,0.146-0.002,0.289-0.004,0.43c-0.003,0.141-0.007,0.274-0.012,0.402c-0.006,0.128-0.012,0.243-0.02,0.348
		s-0.018,0.19-0.027,0.258l1.203-0.047v1.234h-3.648v-1.055c0.177-0.011,0.337-0.027,0.48-0.051
		c0.143-0.023,0.263-0.081,0.359-0.172c0.096-0.091,0.17-0.228,0.223-0.41c0.052-0.183,0.078-0.435,0.078-0.758l-0.039-6.133
		c0-0.146,0.001-0.289,0.004-0.43c0.002-0.141,0.006-0.274,0.012-0.402c0.005-0.128,0.012-0.243,0.02-0.348s0.017-0.19,0.027-0.258
		l-1.203,0.047v-1.234h2.508l4.891,6.172c0.271,0.344,0.493,0.64,0.668,0.887c0.174,0.247,0.324,0.462,0.449,0.645h0.016v-5.078
		c0-0.146,0.001-0.289,0.004-0.43c0.002-0.141,0.006-0.274,0.012-0.402c0.005-0.128,0.012-0.243,0.02-0.348s0.017-0.19,0.027-0.258
		l-1.203,0.047v-1.234h3.641v1.055c-0.183,0.011-0.344,0.028-0.484,0.055s-0.26,0.083-0.355,0.172
		c-0.097,0.089-0.171,0.224-0.223,0.406c-0.053,0.183-0.078,0.435-0.078,0.758V166.236z"/>
</g>
<g>
	<rect x="405.694" y="154" class="st8" width="129" height="40"/>
	<path class="st9" d="M444.037,165.541h-0.391c-0.308,0-0.613,0.042-0.918,0.125s-0.626,0.175-0.965,0.273s-0.706,0.19-1.102,0.273
		s-0.839,0.125-1.328,0.125c-0.87,0-1.644-0.147-2.32-0.441s-1.247-0.698-1.711-1.211s-0.816-1.116-1.059-1.809
		s-0.363-1.438-0.363-2.234c0-0.484,0.051-0.97,0.152-1.457s0.255-0.953,0.461-1.398s0.462-0.86,0.77-1.246s0.668-0.722,1.082-1.008
		s0.879-0.511,1.395-0.672s1.083-0.242,1.703-0.242c0.208,0,0.444,0.017,0.707,0.051s0.531,0.085,0.805,0.152
		s0.542,0.149,0.805,0.246s0.501,0.21,0.715,0.34h0.016l-0.055-0.68h1.234v3.742h-1.047c-0.073-0.448-0.198-0.84-0.375-1.176
		s-0.396-0.616-0.656-0.84s-0.555-0.392-0.883-0.504s-0.68-0.168-1.055-0.168c-0.558,0-1.042,0.128-1.453,0.383
		s-0.751,0.594-1.02,1.016s-0.468,0.905-0.598,1.449s-0.195,1.105-0.195,1.684c0,0.692,0.071,1.329,0.215,1.91
		s0.355,1.082,0.637,1.504s0.629,0.75,1.043,0.984s0.895,0.352,1.441,0.352c0.156,0,0.333-0.009,0.531-0.027
		s0.401-0.044,0.609-0.078s0.41-0.078,0.605-0.133s0.368-0.118,0.52-0.191v-1.484c0-0.146,0.001-0.289,0.004-0.43
		s0.007-0.274,0.012-0.402s0.012-0.243,0.02-0.348s0.017-0.19,0.027-0.258l-1.203,0.047v-1.234h4.25v1.055
		c-0.183,0.011-0.34,0.031-0.473,0.062s-0.242,0.095-0.328,0.191s-0.151,0.234-0.195,0.414s-0.066,0.421-0.066,0.723V165.541z"/>
	<path class="st9" d="M454.342,163.525c0.177,0.266,0.336,0.492,0.477,0.68s0.277,0.341,0.41,0.461s0.271,0.208,0.414,0.266
		s0.306,0.089,0.488,0.094v1.055h-2.633c-0.188-0.136-0.378-0.333-0.57-0.594s-0.396-0.565-0.609-0.914l-1.172-1.914
		c-0.136-0.219-0.258-0.401-0.367-0.547s-0.211-0.276-0.305-0.391c-0.089,0.005-0.167,0.008-0.234,0.008s-0.136,0-0.203,0
		c-0.062,0-0.126,0-0.191,0s-0.137-0.003-0.215-0.008v1.727c0,0.292-0.005,0.571-0.016,0.84s-0.026,0.47-0.047,0.605l1.359-0.047
		v1.234h-4.75v-1.055c0.177-0.011,0.337-0.027,0.48-0.051s0.263-0.081,0.359-0.172s0.171-0.228,0.223-0.41s0.078-0.435,0.078-0.758
		v-6.133c0-0.146,0.001-0.289,0.004-0.43s0.007-0.274,0.012-0.402s0.012-0.243,0.02-0.348s0.017-0.19,0.027-0.258l-1.203,0.047
		v-1.234l4.555-0.031c0.692,0,1.319,0.058,1.879,0.172s1.04,0.304,1.441,0.566s0.708,0.605,0.922,1.027s0.32,0.94,0.32,1.555
		c0.005,0.354-0.05,0.696-0.164,1.027s-0.288,0.634-0.52,0.91s-0.523,0.523-0.875,0.742s-0.767,0.396-1.246,0.531v0.016
		c0.198,0.078,0.396,0.211,0.594,0.398s0.367,0.388,0.508,0.602L454.342,163.525z M450.412,160.572c0.442,0,0.82-0.048,1.133-0.145
		s0.567-0.245,0.766-0.445s0.344-0.452,0.438-0.754s0.141-0.656,0.141-1.062c0-0.344-0.039-0.637-0.117-0.879
		s-0.18-0.444-0.305-0.605s-0.267-0.289-0.426-0.383s-0.319-0.165-0.48-0.215s-0.316-0.081-0.465-0.094s-0.277-0.02-0.387-0.02
		c-0.172,0-0.324,0.013-0.457,0.039s-0.245,0.083-0.336,0.172s-0.161,0.216-0.211,0.383s-0.074,0.391-0.074,0.672v3.281
		c0.125,0.016,0.253,0.028,0.383,0.039S450.276,160.572,450.412,160.572z"/>
	<path class="st9" d="M462.943,162.729l-3.477,0.062l-0.258,0.753c-0.026,0.073-0.059,0.165-0.098,0.274
		c-0.039,0.11-0.083,0.227-0.133,0.35c-0.05,0.122-0.099,0.242-0.148,0.36c-0.05,0.117-0.093,0.224-0.129,0.317l1.141-0.047v1.281
		h-3.43v-1.102c0.224,0,0.413-0.051,0.566-0.152s0.288-0.235,0.402-0.402s0.216-0.36,0.305-0.582s0.177-0.452,0.266-0.691
		l3.125-8.555h1.109l3.414,8.719c0.031,0.078,0.069,0.183,0.113,0.312s0.09,0.27,0.137,0.418s0.089,0.297,0.125,0.445
		s0.062,0.282,0.078,0.402l0.922-0.047v1.234h-4.312v-1.055c0.286,0,0.487-0.057,0.602-0.168c0.114-0.113,0.172-0.266,0.172-0.459
		c0-0.109-0.016-0.231-0.047-0.364c-0.031-0.134-0.073-0.276-0.125-0.428L462.943,162.729z M459.873,161.604h2.664l-0.727-2.008
		c-0.141-0.391-0.266-0.777-0.375-1.16s-0.19-0.723-0.242-1.02h-0.016c-0.042,0.183-0.106,0.453-0.195,0.812
		s-0.219,0.792-0.391,1.297L459.873,161.604z"/>
	<path class="st9" d="M472.451,162.025c-0.125,0.005-0.238,0.009-0.34,0.012s-0.198,0.004-0.289,0.004s-0.18,0-0.266,0
		s-0.176-0.003-0.27-0.008v1.414c0,0.292-0.005,0.571-0.016,0.84s-0.026,0.47-0.047,0.605l1.359-0.047v1.234h-4.75v-1.055
		c0.177-0.011,0.337-0.027,0.48-0.051s0.263-0.081,0.359-0.172s0.171-0.228,0.223-0.41s0.078-0.435,0.078-0.758v-6.133
		c0-0.146,0.001-0.289,0.004-0.43s0.007-0.274,0.012-0.402s0.012-0.243,0.02-0.348s0.017-0.19,0.027-0.258l-1.203,0.047v-1.234
		l4.555-0.031c0.692-0.005,1.321,0.06,1.887,0.195s1.048,0.345,1.449,0.629s0.711,0.647,0.93,1.09s0.328,0.974,0.328,1.594
		c0.005,0.448-0.083,0.884-0.266,1.309s-0.46,0.809-0.832,1.152s-0.843,0.625-1.41,0.844S473.232,161.999,472.451,162.025z
		 M472.006,160.885c0.438,0,0.815-0.056,1.133-0.168s0.578-0.277,0.781-0.496s0.353-0.487,0.449-0.805s0.145-0.68,0.145-1.086
		c0-0.354-0.034-0.659-0.102-0.914s-0.159-0.47-0.273-0.645s-0.246-0.315-0.395-0.422s-0.302-0.188-0.461-0.242
		s-0.317-0.091-0.477-0.109s-0.306-0.027-0.441-0.027c-0.172,0-0.324,0.013-0.457,0.039s-0.245,0.083-0.336,0.172
		s-0.161,0.216-0.211,0.383s-0.074,0.391-0.074,0.672v3.602c0.114,0.011,0.231,0.021,0.352,0.031S471.881,160.885,472.006,160.885z"
		/>
	<path class="st9" d="M488.131,163.455c0,0.146-0.001,0.289-0.004,0.43s-0.007,0.274-0.012,0.402s-0.012,0.243-0.02,0.348
		s-0.017,0.19-0.027,0.258l1.203-0.047v1.234h-4.594v-1.055c0.177-0.011,0.337-0.027,0.48-0.051s0.263-0.081,0.359-0.172
		s0.171-0.228,0.223-0.41s0.078-0.435,0.078-0.758v-2.594l-4.406,0.055v2.359c0,0.146-0.001,0.289-0.004,0.43
		s-0.007,0.274-0.012,0.402s-0.012,0.243-0.02,0.348s-0.017,0.19-0.027,0.258l1.203-0.047v1.234h-4.594v-1.055
		c0.177-0.011,0.337-0.027,0.48-0.051s0.263-0.081,0.359-0.172s0.171-0.228,0.223-0.41s0.078-0.435,0.078-0.758v-6.133
		c0-0.146,0.001-0.289,0.004-0.43s0.007-0.274,0.012-0.402s0.012-0.243,0.02-0.348s0.017-0.19,0.027-0.258l-1.203,0.047v-1.234
		h4.594v1.055c-0.183,0.011-0.344,0.028-0.484,0.055s-0.259,0.083-0.355,0.172s-0.171,0.224-0.223,0.406s-0.078,0.435-0.078,0.758
		v2.508h4.406v-2.328c0-0.146,0.001-0.289,0.004-0.43s0.007-0.274,0.012-0.402s0.012-0.243,0.02-0.348s0.017-0.19,0.027-0.258
		l-1.203,0.047v-1.234h4.594v1.055c-0.183,0.011-0.344,0.028-0.484,0.055s-0.259,0.083-0.355,0.172s-0.171,0.224-0.223,0.406
		s-0.078,0.435-0.078,0.758V163.455z"/>
	<path class="st9" d="M494.318,163.455c0,0.146-0.001,0.289-0.004,0.43s-0.007,0.274-0.012,0.402s-0.012,0.243-0.02,0.348
		s-0.017,0.19-0.027,0.258l1.203-0.047v1.234h-4.594v-1.055c0.177-0.011,0.337-0.027,0.48-0.051s0.263-0.081,0.359-0.172
		s0.171-0.228,0.223-0.41s0.078-0.435,0.078-0.758v-6.133c0-0.146,0.001-0.289,0.004-0.43s0.007-0.274,0.012-0.402
		s0.012-0.243,0.02-0.348s0.017-0.19,0.027-0.258l-1.203,0.047v-1.234h4.594v1.055c-0.183,0.011-0.344,0.028-0.484,0.055
		s-0.259,0.083-0.355,0.172s-0.171,0.224-0.223,0.406s-0.078,0.435-0.078,0.758V163.455z"/>
	<path class="st9" d="M499.139,160.314c0,0.692,0.074,1.328,0.223,1.906s0.364,1.077,0.648,1.496s0.634,0.745,1.051,0.977
		s0.896,0.348,1.438,0.348c0.333,0,0.669-0.044,1.008-0.133s0.667-0.218,0.984-0.387s0.618-0.376,0.902-0.621
		s0.538-0.521,0.762-0.828l0.766,0.703c-0.391,0.542-0.8,0.979-1.227,1.312s-0.852,0.593-1.273,0.777s-0.831,0.31-1.227,0.375
		s-0.758,0.098-1.086,0.098c-0.828,0-1.579-0.147-2.254-0.441s-1.251-0.698-1.73-1.211s-0.849-1.116-1.109-1.809
		s-0.391-1.438-0.391-2.234c0-0.484,0.052-0.97,0.156-1.457s0.259-0.953,0.465-1.398s0.465-0.86,0.777-1.246s0.676-0.722,1.09-1.008
		s0.88-0.511,1.398-0.672s1.087-0.242,1.707-0.242c0.208,0,0.429,0.017,0.66,0.051s0.468,0.085,0.707,0.152s0.477,0.149,0.711,0.246
		s0.458,0.21,0.672,0.34h0.016l-0.055-0.68h1.234v3.742h-1.047c-0.146-0.891-0.44-1.562-0.883-2.012s-1.044-0.676-1.805-0.676
		c-0.558,0-1.043,0.128-1.457,0.383s-0.757,0.594-1.027,1.016s-0.473,0.905-0.605,1.449S499.139,159.736,499.139,160.314z"/>
	<path class="st9" d="M440.037,169.877l4.664-0.016c0.703,0,1.343,0.073,1.918,0.219s1.09,0.349,1.543,0.609s0.847,0.567,1.18,0.922
		s0.609,0.735,0.828,1.145s0.382,0.836,0.488,1.281s0.16,0.89,0.16,1.332c0,0.433-0.05,0.874-0.148,1.324s-0.254,0.888-0.465,1.312
		s-0.48,0.823-0.809,1.195s-0.722,0.698-1.18,0.977s-0.985,0.499-1.582,0.66s-1.267,0.242-2.012,0.242h-4.586v-1.055
		c0.177-0.011,0.337-0.028,0.48-0.055s0.263-0.083,0.359-0.172s0.171-0.224,0.223-0.406s0.078-0.435,0.078-0.758v-6.133
		c0-0.146,0.001-0.289,0.004-0.43s0.007-0.274,0.012-0.402s0.012-0.243,0.02-0.348s0.017-0.19,0.027-0.258l-1.203,0.047V169.877z
		 M444.67,170.932c-0.198-0.005-0.371,0.005-0.52,0.031s-0.271,0.086-0.367,0.18s-0.169,0.231-0.219,0.414s-0.074,0.427-0.074,0.734
		v6.164c0,0.146-0.001,0.289-0.004,0.43s-0.007,0.274-0.012,0.402s-0.012,0.243-0.02,0.348s-0.017,0.19-0.027,0.258
		c0.078-0.005,0.184-0.008,0.316-0.008s0.273,0.003,0.422,0.008s0.294,0.009,0.438,0.012s0.262,0.004,0.355,0.004
		c0.583,0,1.085-0.118,1.504-0.355s0.765-0.552,1.035-0.945s0.472-0.843,0.602-1.348s0.195-1.023,0.195-1.555
		c0-0.817-0.085-1.523-0.254-2.117s-0.411-1.085-0.727-1.473s-0.696-0.679-1.145-0.871S445.222,170.947,444.67,170.932z"/>
	<path class="st9" d="M455.412,175.83v2.63c0,0.146-0.001,0.288-0.004,0.427s-0.007,0.271-0.012,0.396s-0.012,0.238-0.02,0.341
		c-0.008,0.102-0.017,0.186-0.027,0.254l2.148-0.008c0.234,0,0.469-0.039,0.703-0.117c0.234-0.079,0.442-0.208,0.625-0.389
		c0.183-0.18,0.331-0.418,0.445-0.713s0.172-0.66,0.172-1.094h1.055l-0.094,3.523h-8.445v-1.047c0.177-0.011,0.337-0.028,0.48-0.055
		s0.263-0.084,0.359-0.172c0.097-0.089,0.171-0.225,0.223-0.406c0.052-0.183,0.078-0.436,0.078-0.759v-6.139
		c0-0.146,0.001-0.289,0.004-0.43s0.007-0.275,0.012-0.402c0.005-0.128,0.012-0.244,0.02-0.349c0.008-0.104,0.017-0.189,0.027-0.258
		l-1.203,0.047v-1.234h8.008l0.094,3.102h-1.055c0-0.433-0.062-0.784-0.184-1.055s-0.277-0.481-0.465-0.633
		s-0.396-0.253-0.625-0.305s-0.453-0.075-0.672-0.07l-0.578,0.016c-0.167,0.005-0.316,0.022-0.449,0.051s-0.245,0.09-0.336,0.184
		s-0.161,0.231-0.211,0.414s-0.074,0.43-0.074,0.742v2.398h1.883l-0.07-1.383h1.234v3.891h-1.055c0-0.333-0.042-0.597-0.125-0.789
		s-0.195-0.336-0.336-0.43s-0.306-0.149-0.496-0.168s-0.395-0.024-0.613-0.02L455.412,175.83z"/>
	<path class="st9" d="M466.1,180.182c0.286,0,0.548-0.039,0.785-0.117s0.44-0.187,0.609-0.324s0.301-0.298,0.395-0.48
		s0.141-0.378,0.141-0.586c0-0.281-0.077-0.523-0.23-0.727s-0.354-0.382-0.602-0.535s-0.523-0.292-0.828-0.414
		s-0.608-0.243-0.91-0.363c-0.516-0.208-0.995-0.433-1.438-0.672s-0.825-0.516-1.148-0.828s-0.575-0.669-0.758-1.07
		s-0.273-0.864-0.273-1.391c0-0.219,0.027-0.446,0.082-0.684s0.141-0.469,0.258-0.695s0.272-0.441,0.465-0.645
		s0.429-0.382,0.707-0.535s0.602-0.274,0.969-0.363s0.788-0.133,1.262-0.133c0.208,0,0.433,0.017,0.672,0.051
		s0.479,0.082,0.719,0.145s0.47,0.142,0.691,0.238s0.421,0.207,0.598,0.332h0.016l-0.055-0.656h1.234v3.742h-1.047
		c-0.146-0.911-0.457-1.589-0.934-2.031s-1.09-0.664-1.84-0.664c-0.229,0-0.446,0.034-0.652,0.102s-0.388,0.163-0.547,0.285
		s-0.285,0.269-0.379,0.438s-0.141,0.353-0.141,0.551c0,0.25,0.052,0.474,0.156,0.672s0.263,0.383,0.477,0.555
		s0.481,0.339,0.805,0.5s0.706,0.331,1.148,0.508c0.266,0.109,0.542,0.229,0.828,0.359s0.565,0.274,0.836,0.434
		s0.527,0.336,0.77,0.531s0.453,0.413,0.633,0.652s0.323,0.504,0.43,0.793s0.16,0.608,0.16,0.957c0,0.474-0.098,0.909-0.293,1.305
		s-0.473,0.735-0.832,1.02s-0.792,0.505-1.297,0.664s-1.067,0.238-1.688,0.238c-0.208,0-0.43-0.017-0.664-0.051
		s-0.472-0.083-0.711-0.148s-0.478-0.147-0.715-0.246s-0.462-0.214-0.676-0.344h-0.016l0.055,0.68h-1.234v-3.742h1.047
		c0.073,0.448,0.198,0.84,0.375,1.176s0.395,0.617,0.652,0.844s0.551,0.396,0.879,0.508S465.725,180.182,466.1,180.182z"/>
	<path class="st9" d="M474.967,178.455c0,0.146-0.001,0.289-0.004,0.43s-0.007,0.274-0.012,0.402s-0.012,0.243-0.02,0.348
		s-0.017,0.19-0.027,0.258l1.203-0.047v1.234h-4.594v-1.055c0.177-0.011,0.337-0.027,0.48-0.051s0.263-0.081,0.359-0.172
		s0.171-0.228,0.223-0.41s0.078-0.435,0.078-0.758v-6.133c0-0.146,0.001-0.289,0.004-0.43s0.007-0.274,0.012-0.402
		s0.012-0.243,0.02-0.348s0.017-0.19,0.027-0.258l-1.203,0.047v-1.234h4.594v1.055c-0.183,0.011-0.344,0.028-0.484,0.055
		s-0.259,0.083-0.355,0.172s-0.171,0.224-0.223,0.406s-0.078,0.435-0.078,0.758V178.455z"/>
	<path class="st9" d="M487.436,180.541h-0.391c-0.308,0-0.613,0.042-0.918,0.125s-0.626,0.175-0.965,0.273s-0.706,0.19-1.102,0.273
		s-0.839,0.125-1.328,0.125c-0.87,0-1.644-0.147-2.32-0.441s-1.247-0.698-1.711-1.211s-0.816-1.116-1.059-1.809
		s-0.363-1.438-0.363-2.234c0-0.484,0.051-0.97,0.152-1.457s0.255-0.953,0.461-1.398s0.462-0.86,0.77-1.246s0.668-0.722,1.082-1.008
		s0.879-0.511,1.395-0.672s1.083-0.242,1.703-0.242c0.208,0,0.444,0.017,0.707,0.051s0.531,0.085,0.805,0.152
		s0.542,0.149,0.805,0.246s0.501,0.21,0.715,0.34h0.016l-0.055-0.68h1.234v3.742h-1.047c-0.073-0.448-0.198-0.84-0.375-1.176
		s-0.396-0.616-0.656-0.84s-0.555-0.392-0.883-0.504s-0.68-0.168-1.055-0.168c-0.558,0-1.042,0.128-1.453,0.383
		s-0.751,0.594-1.02,1.016s-0.468,0.905-0.598,1.449s-0.195,1.105-0.195,1.684c0,0.692,0.071,1.329,0.215,1.91
		s0.355,1.082,0.637,1.504s0.629,0.75,1.043,0.984s0.895,0.352,1.441,0.352c0.156,0,0.333-0.009,0.531-0.027
		s0.401-0.044,0.609-0.078s0.41-0.078,0.605-0.133s0.368-0.118,0.52-0.191v-1.484c0-0.146,0.001-0.289,0.004-0.43
		s0.007-0.274,0.012-0.402s0.012-0.243,0.02-0.348s0.017-0.19,0.027-0.258l-1.203,0.047v-1.234h4.25v1.055
		c-0.183,0.011-0.34,0.031-0.473,0.062s-0.242,0.095-0.328,0.191s-0.151,0.234-0.195,0.414s-0.066,0.421-0.066,0.723V180.541z"/>
	<path class="st9" d="M499.443,181.236h-1.359l-5.117-6.539c-0.271-0.349-0.562-0.747-0.875-1.195h-0.016l0.023,4.953
		c0,0.146-0.001,0.289-0.004,0.43s-0.007,0.274-0.012,0.402s-0.012,0.243-0.02,0.348s-0.017,0.19-0.027,0.258l1.203-0.047v1.234
		h-3.648v-1.055c0.177-0.011,0.337-0.027,0.48-0.051s0.263-0.081,0.359-0.172s0.171-0.228,0.223-0.41s0.078-0.435,0.078-0.758
		l-0.039-6.133c0-0.146,0.001-0.289,0.004-0.43s0.007-0.274,0.012-0.402s0.012-0.243,0.02-0.348s0.017-0.19,0.027-0.258
		l-1.203,0.047v-1.234h2.508l4.891,6.172c0.271,0.344,0.493,0.64,0.668,0.887s0.324,0.462,0.449,0.645h0.016v-5.078
		c0-0.146,0.001-0.289,0.004-0.43s0.007-0.274,0.012-0.402s0.012-0.243,0.02-0.348s0.017-0.19,0.027-0.258l-1.203,0.047v-1.234
		h3.641v1.055c-0.183,0.011-0.344,0.028-0.484,0.055s-0.259,0.083-0.355,0.172s-0.171,0.224-0.223,0.406s-0.078,0.435-0.078,0.758
		V181.236z"/>
</g>
</svg>